<?xml version="1.0" standalone="no"?>
<!DOCTYPE svg PUBLIC "-//W3C//DTD SVG 20010904//EN"
 "http://www.w3.org/TR/2001/REC-SVG-20010904/DTD/svg10.dtd">
<svg version="1.0" xmlns="http://www.w3.org/2000/svg"
 width="530.000000pt" height="370.000000pt" viewBox="0 0 530.000000 370.000000"
 preserveAspectRatio="xMidYMid meet">

<g transform="translate(0.000000,370.000000) scale(0.100000,-0.100000)"
fill="#000000" stroke="none">
<path d="M1556 3330 c-680 -266 -706 -278 -706 -330 0 -39 23 -71 213 -295
108 -126 193 -233 189 -237 -4 -3 -162 -104 -352 -223 -190 -119 -355 -227
-367 -241 -26 -28 -29 -60 -11 -99 13 -29 -3 -21 468 -244 l295 -140 5 -393
c4 -283 8 -399 17 -414 15 -26 -29 -6 704 -328 361 -158 619 -266 637 -266 38
0 1339 556 1361 582 14 16 17 73 21 420 l5 402 365 173 c201 96 373 183 383
194 23 29 22 87 -3 114 -11 12 -178 120 -370 241 -192 120 -350 223 -350 227
0 5 82 106 183 225 101 119 191 228 200 242 21 30 22 62 3 99 -13 25 -83 54
-688 289 -370 144 -683 262 -696 262 -13 0 -31 -4 -41 -10 -10 -5 -96 -102
-191 -215 -139 -166 -175 -204 -185 -193 -7 7 -83 97 -169 200 -86 103 -166
194 -179 203 -12 8 -35 15 -52 14 -16 -1 -327 -117 -689 -259z m816 -121 c84
-100 153 -186 153 -192 0 -9 -1062 -455 -1087 -457 -8 0 -341 390 -336 394 4
4 1101 434 1110 435 4 1 76 -80 160 -180z m1291 -40 c301 -117 546 -216 545
-220 -4 -11 -319 -384 -327 -387 -8 -3 -1082 436 -1094 448 -10 9 303 382 317
377 6 -3 257 -101 559 -218z m-425 -547 c254 -102 462 -189 462 -192 0 -6
-939 -410 -953 -410 -4 0 -7 180 -7 401 0 378 1 401 18 395 9 -4 225 -91 480
-194z m-678 -207 c0 -217 -3 -395 -7 -395 -10 0 -917 401 -926 410 -4 4 43 28
105 54 603 247 796 324 811 325 16 1 17 -24 17 -394z m-633 -327 c299 -128
543 -235 543 -238 0 -6 -546 -422 -555 -423 -14 -1 -1115 528 -1113 535 5 12
551 356 568 357 8 1 259 -103 557 -231z m2303 56 c154 -98 280 -180 280 -183
0 -6 -1028 -500 -1091 -524 -23 -9 -47 6 -297 197 -150 114 -272 211 -272 215
0 8 1067 470 1087 471 7 0 139 -79 293 -176z m-1195 -675 c331 -251 313 -239
351 -239 18 0 114 40 240 100 115 55 212 100 217 100 4 0 7 -137 7 -304 l0
-304 -539 -231 c-297 -127 -546 -234 -555 -237 -15 -6 -16 55 -16 666 0 536 3
670 13 663 6 -5 134 -102 282 -214z m-475 -459 c0 -363 -2 -660 -4 -660 -2 0
-244 105 -537 234 l-534 234 -3 305 -2 306 209 -100 c136 -64 221 -99 243 -99
28 0 80 36 322 220 159 121 293 220 297 220 5 0 9 -295 9 -660z"/>
</g>
</svg>
