<?xml version="1.0" standalone="no"?>
<!DOCTYPE svg PUBLIC "-//W3C//DTD SVG 20010904//EN"
 "http://www.w3.org/TR/2001/REC-SVG-20010904/DTD/svg10.dtd">
<svg version="1.0" xmlns="http://www.w3.org/2000/svg"
 width="349.000000pt" height="61.000000pt" viewBox="0 0 349.000000 61.000000"
 preserveAspectRatio="xMidYMid meet">

<g transform="translate(0.000000,61.000000) scale(0.100000,-0.100000)"
fill="#000000" stroke="none">
<path d="M571 484 c-31 -22 -61 -90 -61 -139 0 -49 30 -117 61 -139 30 -20 78
-21 107 0 105 73 65 294 -53 294 -17 0 -41 -7 -54 -16z m102 -33 c46 -55 46
-156 0 -211 -30 -36 -56 -38 -88 -6 -54 54 -53 183 2 226 35 27 57 25 86 -9z"/>
<path d="M1203 478 c-13 -13 -26 -38 -29 -56 -9 -43 13 -66 74 -82 26 -6 52
-16 59 -22 20 -16 15 -66 -7 -88 -41 -41 -90 -16 -99 50 -10 71 -31 63 -31
-12 0 -58 2 -63 23 -65 12 -1 40 -5 63 -9 37 -5 43 -3 67 26 29 34 37 99 15
118 -7 6 -38 16 -68 24 -52 12 -55 15 -58 46 -6 57 47 94 78 56 8 -8 16 -31
19 -51 10 -61 29 -51 33 16 3 55 1 60 -17 61 -11 0 -38 3 -60 6 -34 5 -44 2
-62 -18z"/>
<path d="M2138 483 c-11 -3 -20 -22 -28 -61 -16 -83 -33 -135 -46 -139 -7 -2
-17 22 -25 62 -9 49 -16 64 -27 60 -7 -3 -20 -5 -27 -5 -7 0 -16 -15 -19 -34
-4 -18 -18 -46 -31 -60 -31 -33 -32 -60 -3 -80 33 -23 72 -19 107 10 l31 26 0
-26 c0 -21 5 -26 24 -26 22 0 26 6 36 58 18 91 25 107 46 107 21 0 22 -14 9
-97 -7 -44 -6 -48 18 -59 22 -10 31 -9 52 5 23 15 27 15 41 1 37 -36 108 2
120 65 6 29 30 58 39 48 4 -4 -27 -164 -41 -210 -4 -15 -1 -16 24 -7 24 8 32
19 41 55 10 40 14 44 35 38 48 -12 86 30 100 109 12 63 -10 85 -83 86 -58 0
-60 -1 -63 -27 -4 -35 -34 -41 -43 -10 -25 78 -129 30 -143 -67 -6 -41 -11
-50 -27 -50 -13 0 -19 6 -17 15 25 106 7 154 -49 133 -33 -13 -34 -10 -20 50
9 38 7 40 -31 30z m262 -99 c0 -3 -5 -15 -11 -26 -8 -15 -8 -22 1 -28 14 -8 4
-54 -16 -71 -7 -6 -21 -9 -29 -5 -35 13 -4 136 34 136 12 0 21 -3 21 -6z m164
-50 c-2 -60 -18 -94 -44 -94 -23 0 -26 23 -9 85 16 64 18 67 36 63 15 -3 18
-13 17 -54z m-568 -29 c7 -51 -7 -78 -39 -73 -28 4 -32 24 -6 31 17 5 20 11
16 29 -7 28 2 70 14 63 4 -3 11 -26 15 -50z"/>
<path d="M1407 473 c-4 -3 -7 -17 -7 -30 0 -14 -6 -23 -15 -23 -8 0 -15 -4
-15 -10 0 -5 7 -10 15 -10 12 0 15 -16 15 -84 0 -77 -2 -84 -21 -89 -37 -10
-10 -27 42 -27 53 0 61 8 29 28 -19 11 -21 21 -18 90 3 71 5 77 26 80 12 2 22
7 22 12 0 5 -10 10 -22 12 -17 2 -24 11 -26 31 -3 26 -12 34 -25 20z"/>
<path d="M2625 470 c-10 -16 4 -30 30 -30 33 0 50 -30 70 -127 l18 -82 106 -4
106 -3 -107 -2 c-101 -2 -108 -3 -108 -22 0 -14 7 -20 23 -21 12 0 16 -3 10
-6 -18 -7 -16 -42 3 -50 8 -3 23 1 31 10 13 13 14 19 3 31 -11 14 -5 16 56 15
38 0 63 -3 57 -6 -18 -7 -16 -42 3 -50 22 -8 52 23 36 39 -9 9 -7 17 10 35 18
19 20 28 12 41 -9 14 -29 18 -100 20 -131 4 -136 16 -9 22 l110 5 3 73 3 72
-129 0 c-124 0 -129 1 -152 25 -24 25 -73 34 -85 15z m235 -63 l125 -3 -128
-2 -129 -2 8 -32 c3 -18 12 -51 18 -73 l12 -40 102 -3 c101 -3 102 -3 102 -27
l0 -25 -107 2 -108 2 103 3 c81 3 102 7 102 18 0 12 -19 15 -100 15 -115 0
-106 -7 -130 110 -7 36 -22 76 -34 90 -19 23 -19 23 9 -2 29 -26 36 -27 155
-31z m-80 -27 c0 -5 -7 -10 -15 -10 -8 0 -15 5 -15 10 0 6 7 10 15 10 8 0 15
-4 15 -10z m40 0 c0 -5 -4 -10 -10 -10 -5 0 -10 5 -10 10 0 6 5 10 10 10 6 0
10 -4 10 -10z m40 0 c0 -5 -4 -10 -10 -10 -5 0 -10 5 -10 10 0 6 5 10 10 10 6
0 10 -4 10 -10z m40 0 c0 -5 -7 -10 -15 -10 -8 0 -15 5 -15 10 0 6 7 10 15 10
8 0 15 -4 15 -10z m30 0 c0 -5 -4 -10 -10 -10 -5 0 -10 5 -10 10 0 6 5 10 10
10 6 0 10 -4 10 -10z m50 0 c0 -5 -7 -10 -15 -10 -8 0 -15 5 -15 10 0 6 7 10
15 10 8 0 15 -4 15 -10z m-200 -35 c0 -8 -4 -15 -9 -15 -5 0 -11 7 -15 15 -3
9 0 15 9 15 8 0 15 -7 15 -15z m40 0 c0 -8 -4 -15 -10 -15 -5 0 -10 7 -10 15
0 8 5 15 10 15 6 0 10 -7 10 -15z m40 0 c0 -8 -4 -15 -10 -15 -5 0 -10 7 -10
15 0 8 5 15 10 15 6 0 10 -7 10 -15z m40 0 c0 -8 -7 -15 -15 -15 -8 0 -15 7
-15 15 0 8 7 15 15 15 8 0 15 -7 15 -15z m30 0 c0 -8 -4 -15 -10 -15 -5 0 -10
7 -10 15 0 8 5 15 10 15 6 0 10 -7 10 -15z m50 0 c0 -8 -7 -15 -15 -15 -8 0
-15 7 -15 15 0 8 7 15 15 15 8 0 15 -7 15 -15z m-200 -41 c0 -8 -4 -12 -10 -9
-5 3 -10 10 -10 16 0 5 5 9 10 9 6 0 10 -7 10 -16z m40 1 c0 -8 -4 -15 -10
-15 -5 0 -10 7 -10 15 0 8 5 15 10 15 6 0 10 -7 10 -15z m40 0 c0 -8 -4 -15
-10 -15 -5 0 -10 7 -10 15 0 8 5 15 10 15 6 0 10 -7 10 -15z m40 0 c0 -8 -7
-15 -15 -15 -8 0 -15 7 -15 15 0 8 7 15 15 15 8 0 15 -7 15 -15z m30 0 c0 -8
-4 -15 -10 -15 -5 0 -10 7 -10 15 0 8 5 15 10 15 6 0 10 -7 10 -15z m40 0 c0
-8 -4 -15 -10 -15 -5 0 -10 7 -10 15 0 8 5 15 10 15 6 0 10 -7 10 -15z"/>
<path d="M815 423 c-57 -5 -82 -20 -47 -30 22 -5 23 -10 20 -87 -2 -53 -7 -81
-15 -81 -6 0 -14 -3 -18 -7 -8 -7 55 -28 67 -21 3 2 4 37 1 78 -7 85 10 125
50 125 39 0 47 -18 47 -112 l0 -88 29 0 c36 0 49 16 20 23 -19 5 -21 11 -15
49 11 82 -26 161 -73 156 -9 -1 -38 -3 -66 -5z"/>
<path d="M1034 419 c-51 -25 -71 -116 -40 -178 30 -57 97 -63 136 -14 25 33
27 66 3 61 -10 -2 -17 -10 -15 -17 4 -20 -28 -51 -54 -51 -26 0 -54 34 -54 65
0 18 5 20 54 17 30 -2 63 1 74 7 18 9 19 16 11 43 -10 37 -51 78 -77 77 -9 0
-26 -5 -38 -10z m68 -36 c10 -9 18 -24 18 -35 0 -15 -8 -18 -55 -18 -60 0 -67
9 -39 48 18 26 50 28 76 5z"/>
<path d="M1530 417 c-36 -18 -62 -74 -56 -120 12 -105 108 -139 164 -57 40 60
17 157 -44 180 -32 12 -34 12 -64 -3z m76 -38 c13 -15 19 -36 19 -69 0 -82
-64 -122 -102 -63 -53 81 22 200 83 132z"/>
<path d="M1695 423 c-44 -5 -74 -23 -37 -23 21 0 22 -3 22 -124 0 -120 -1
-124 -22 -130 -35 -9 -3 -26 50 -26 43 0 57 14 22 23 -13 3 -20 14 -20 31 0
23 3 25 41 23 104 -4 138 150 49 220 -15 12 -30 13 -105 6z m95 -31 c28 -22
38 -104 18 -142 -18 -34 -61 -39 -82 -8 -34 48 -9 167 35 168 4 0 17 -8 29
-18z"/>
</g>
</svg>
