<?xml version="1.0" standalone="no"?>
<!DOCTYPE svg PUBLIC "-//W3C//DTD SVG 20010904//EN"
 "http://www.w3.org/TR/2001/REC-SVG-20010904/DTD/svg10.dtd">
<svg version="1.0" xmlns="http://www.w3.org/2000/svg"
 width="429.000000pt" height="289.000000pt" viewBox="0 0 429.000000 289.000000"
 preserveAspectRatio="xMidYMid meet">

<g transform="translate(0.000000,289.000000) scale(0.100000,-0.100000)"
fill="#000000" stroke="none">
<path d="M1068 2748 c-3 -24 -4 -81 -4 -128 l1 -85 610 -5 610 -5 76 -150
c151 -299 199 -529 199 -947 l0 -188 -362 0 -363 0 0 54 c0 59 -18 92 -69 130
-21 16 -46 22 -107 25 l-79 3 0 197 c0 167 -3 201 -18 231 -47 94 -175 108
-249 28 -37 -41 -43 -90 -43 -385 l0 -283 -25 0 -25 0 0 620 0 620 -50 0 -50
0 0 -410 0 -410 -105 0 -105 0 0 100 0 100 -100 0 -100 0 0 -50 0 -50 50 0 50
0 0 -50 0 -49 -77 -3 -78 -3 -3 -300 c-2 -275 -4 -301 -21 -320 -36 -39 -71
-105 -98 -182 -37 -108 -38 -237 -4 -341 72 -221 265 -375 497 -397 92 -9 197
14 301 65 l81 40 382 0 382 0 36 -31 c86 -76 214 -96 320 -50 68 31 144 113
167 182 23 68 17 178 -13 236 -20 38 -22 58 -22 213 l0 170 -435 0 c-428 0
-435 0 -435 20 0 20 7 20 435 20 l435 0 0 55 0 55 -601 0 -601 0 -30 25 -30
25 631 0 631 0 0 230 0 230 55 0 55 0 0 -460 0 -460 142 0 143 0 -80 -80 -80
-80 -62 0 -63 0 0 -50 0 -50 88 0 87 0 130 130 130 130 292 0 293 0 0 125 0
125 -50 0 -50 0 0 620 0 620 -335 0 -335 0 0 280 0 280 -125 0 -125 0 -2 -407
-3 -408 -67 -3 c-67 -3 -67 -3 -73 25 -48 217 -132 429 -253 633 l-38 65 -452
3 c-443 2 -452 3 -452 22 0 19 9 20 463 22 l462 3 3 53 3 52 -644 0 -645 0 -4
-42z m1852 -1018 l0 -900 385 0 385 0 0 -25 0 -25 -410 0 -410 0 0 925 0 925
25 0 25 0 0 -900z m258 257 l3 -78 127 3 127 3 3 78 3 77 74 0 75 0 0 -260 0
-260 -280 0 -280 0 0 254 0 255 48 4 c101 8 97 12 100 -76z m152 58 c0 -20 -5
-25 -25 -25 -20 0 -25 5 -25 25 0 20 5 25 25 25 20 0 25 -5 25 -25z m-1866
-201 c14 -13 16 -51 16 -255 l0 -239 110 0 c97 0 112 -2 130 -20 24 -24 25
-39 6 -66 -13 -17 -30 -19 -180 -22 l-166 -3 0 298 c0 219 3 302 12 311 17 17
54 15 72 -4z m1304 -86 l-3 -53 -55 0 -55 0 -3 53 -3 52 61 0 61 0 -3 -52z
m-1648 -358 l0 -160 -71 0 c-82 0 -172 -21 -241 -56 l-48 -24 0 194 0 195 58
4 c31 2 112 4 180 5 l122 2 0 -160z m2060 -30 l0 -81 128 3 127 3 3 78 3 77
74 0 75 0 0 -105 0 -105 -135 0 -135 0 0 -125 0 -125 135 0 135 0 0 -25 0 -25
-280 0 -280 0 0 255 0 255 75 0 75 0 0 -80z m150 55 c0 -20 -5 -25 -25 -25
-20 0 -25 5 -25 25 0 20 5 25 25 25 20 0 25 -5 25 -25z m-2175 -295 c123 -20
257 -117 319 -229 127 -233 31 -523 -211 -639 -76 -36 -81 -37 -188 -36 -90 0
-121 4 -167 23 -168 66 -284 223 -295 401 -15 220 130 415 348 474 65 18 114
19 194 6z m2425 -15 c0 -24 -2 -25 -75 -25 -73 0 -75 1 -75 25 0 24 2 25 75
25 73 0 75 -1 75 -25z m-1020 -348 l0 -74 -52 18 c-143 50 -300 -10 -373 -142
-28 -50 -30 -62 -30 -151 l0 -98 -297 0 -297 0 34 50 c81 120 112 294 78 437
-5 22 -3 22 109 26 62 1 274 4 471 5 l357 2 0 -73z m-73 -158 c96 -36 149
-167 108 -267 -76 -180 -339 -154 -385 38 -22 91 25 183 115 225 36 17 123 19
162 4z"/>
<path d="M982 976 c-68 -17 -128 -60 -169 -120 -43 -63 -56 -116 -51 -201 11
-159 124 -271 286 -282 209 -15 375 186 317 383 -29 99 -92 171 -189 212 -44
19 -135 23 -194 8z m166 -111 c134 -56 164 -236 56 -337 -39 -36 -74 -48 -141
-48 -112 0 -193 81 -193 194 0 90 35 147 115 189 39 21 115 21 163 2z"/>
<path d="M2068 1694 c-60 -57 -108 -108 -108 -112 0 -11 54 -62 65 -62 5 0 24
14 42 32 l33 32 25 -24 c24 -23 25 -28 25 -147 l0 -123 180 0 180 0 0 55 0 55
-130 0 -130 0 0 88 0 88 -40 39 -40 39 37 38 37 38 -34 35 -35 34 -107 -105z"/>
</g>
</svg>
